<?xml version="1.0" encoding="utf-8"?>
<!-- Generator: Adobe Illustrator 17.0.2, SVG Export Plug-In . SVG Version: 6.00 Build 0)  -->
<!DOCTYPE svg PUBLIC "-//W3C//DTD SVG 1.1//EN" "http://www.w3.org/Graphics/SVG/1.1/DTD/svg11.dtd">
<svg version="1.1" id="Layer_1" xmlns="http://www.w3.org/2000/svg" xmlns:xlink="http://www.w3.org/1999/xlink" x="0px" y="0px"
	 width="16px" height="16px" viewBox="0 0 16 16" style="enable-background:new 0 0 16 16;" xml:space="preserve">
<style type="text/css">
	.st0{fill-rule:evenodd;clip-rule:evenodd;fill:#C1C1BE;}
</style>
<path class="st0" d="M1.333,0C0.597,0,0,0.597,0,1.333v13.333C0,15.403,0.597,16,1.333,16H7.89l0.001-6.111H5.944l0.111-2.681h1.838
	V5.271c0,0-0.256-2.611,2.642-2.611c0.808,0,2.205,0.026,2.205,0.026v2.298h-1.413c0,0-0.676-0.032-0.676,0.518v1.758h2.507
	l-0.594,2.681h-1.942l0,6.058h4.043C15.403,16,16,15.403,16,14.667V1.333C16,0.597,15.403,0,14.667,0H1.333z"/>
</svg>
