<?xml version="1.0" encoding="utf-8"?>
<!-- Generator: Adobe Illustrator 17.1.0, SVG Export Plug-In . SVG Version: 6.00 Build 0)  -->
<!DOCTYPE svg PUBLIC "-//W3C//DTD SVG 1.1//EN" "http://www.w3.org/Graphics/SVG/1.1/DTD/svg11.dtd">
<svg version="1.1" id="Layer_1" xmlns="http://www.w3.org/2000/svg" xmlns:xlink="http://www.w3.org/1999/xlink" x="0px" y="0px"
	 width="86px" height="50px" viewBox="0 0 86 50" style="enable-background:new 0 0 86 50;" xml:space="preserve">
<style type="text/css">
	.st0{fill-rule:evenodd;clip-rule:evenodd;fill:#BBBAB5;}
</style>
<path class="st0" d="M43,50c-13.8,0-25-11.2-25-25C18,11.2,29.2,0,43,0c13.8,0,25,11.2,25,25C68,38.8,56.8,50,43,50z M43,2
	C30.3,2,20,12.3,20,25c0,12.7,10.3,23,23,23c12.7,0,23-10.3,23-23C66,12.3,55.7,2,43,2z M58,26v-2h4v2H58z M52.9,13.7l2.8-2.8
	l1.4,1.4l-2.8,2.8L52.9,13.7z M56,38.6L54.6,40l-2.8-2.8l1.4-1.4L56,38.6z M42,40h2v4h-2V40z M28,24h14V6h2v18v2v0H28V24z M28,13.4
	l1.4-1.4l2.8,2.8l-1.4,1.4L28,13.4z M33.1,36.3l-2.8,2.8l-1.4-1.4l2.8-2.8L33.1,36.3z"/>
</svg>
