<?xml version="1.0" encoding="utf-8"?>
<!-- Generator: Adobe Illustrator 16.0.0, SVG Export Plug-In . SVG Version: 6.00 Build 0)  -->
<!DOCTYPE svg PUBLIC "-//W3C//DTD SVG 1.1//EN" "http://www.w3.org/Graphics/SVG/1.1/DTD/svg11.dtd">
<svg version="1.1" id="Layer_1" xmlns="http://www.w3.org/2000/svg" xmlns:xlink="http://www.w3.org/1999/xlink" x="0px" y="0px"
	 width="40px" height="48px" viewBox="0 0 40 48" style="enable-background:new 0 0 40 48;" xml:space="preserve">
<style type="text/css">
<![CDATA[
	.st0{fill:#66BE65;}
]]>
</style>
<path class="st0" d="M30,14c0-5.6-4.4-10-10-10c-5.6,0-10,4.4-10,10v4h20V14z M16,40h8l-2.6-6.4c1.4-0.6,2.6-2,2.6-3.6
	c0-2.2-1.8-4-4-4c-2.2,0-4,1.8-4,4c0,1.6,1,3.2,2.6,3.6L16,40z M36,48H4c-2.2,0-4-1.8-4-4V22c0-2.2,1.8-4,4-4h2v-3.6
	C6,6.4,11.8,0,20,0c8.2,0,14,6.4,14,14.4V18h2c2.2,0,4,1.8,4,4v22C40,46.2,38.2,48,36,48z"/>
</svg>
