<?xml version="1.0" encoding="utf-8"?>
<!-- Generator: Adobe Illustrator 17.0.2, SVG Export Plug-In . SVG Version: 6.00 Build 0)  -->
<!DOCTYPE svg PUBLIC "-//W3C//DTD SVG 1.1//EN" "http://www.w3.org/Graphics/SVG/1.1/DTD/svg11.dtd">
<svg version="1.1" id="Layer_1" xmlns="http://www.w3.org/2000/svg" xmlns:xlink="http://www.w3.org/1999/xlink" x="0px" y="0px"
	 width="16px" height="16px" viewBox="0 0 16 16" style="enable-background:new 0 0 16 16;" xml:space="preserve">
<style type="text/css">
	.st0{fill-rule:evenodd;clip-rule:evenodd;fill:#C1C1BE;}
</style>
<path class="st0" d="M15.763,13.158c0.284-0.283,0.299-0.681,0.085-0.895c-2.833-2.822-2.832-2.829-2.832-2.829
	c-0.224-0.223-0.619-0.18-0.887,0.087l-1.242,1.241l3.637,3.633C14.524,14.396,15.766,13.161,15.763,13.158z M6.546,3.95
	c0.284-0.283,0.296-0.683,0.082-0.898C3.711,0.148,3.715,0.143,3.715,0.143C3.492-0.08,3.096-0.036,2.829,0.231L1.586,1.472
	l3.717,3.713L6.546,3.95z M0.801,2.256c-0.669,0.799-2.329,4.482,2.805,9.769c5.41,5.57,9.403,3.893,10.132,3.14l-3.628-3.624
	c-0.612,0.611-1.287,0.184-2.566-0.813C6.701,10.065,5.743,9.164,4.933,8.12C4.371,7.384,3.88,6.607,4.522,5.965L0.801,2.256z"/>
</svg>
