<?xml version="1.0" encoding="utf-8"?>
<!-- Generator: Adobe Illustrator 17.0.2, SVG Export Plug-In . SVG Version: 6.00 Build 0)  -->
<!DOCTYPE svg PUBLIC "-//W3C//DTD SVG 1.1//EN" "http://www.w3.org/Graphics/SVG/1.1/DTD/svg11.dtd">
<svg version="1.1" id="Layer_1" xmlns="http://www.w3.org/2000/svg" xmlns:xlink="http://www.w3.org/1999/xlink" x="0px" y="0px"
	 width="16px" height="16px" viewBox="0 0 16 16" style="enable-background:new 0 0 16 16;" xml:space="preserve">
<style type="text/css">
	.st0{fill:#C1C1BE;}
</style>
<path class="st0" d="M16,2.658c-0.589,0.281-1.221,0.471-1.885,0.556c0.678-0.437,1.198-1.13,1.443-1.955
	c-0.634,0.405-1.337,0.699-2.084,0.857c-0.599-0.687-1.452-1.116-2.396-1.116c-1.813,0-3.283,1.582-3.283,3.534
	c0,0.277,0.029,0.546,0.085,0.805C5.152,5.193,2.733,3.786,1.114,1.648C0.831,2.17,0.669,2.777,0.669,3.424
	c0,1.226,0.58,2.308,1.46,2.941C1.592,6.347,1.085,6.188,0.643,5.924c0,0.015,0,0.029,0,0.044c0,1.712,1.132,3.14,2.633,3.465
	C3,9.514,2.71,9.557,2.411,9.557c-0.211,0-0.417-0.023-0.618-0.064c0.418,1.404,1.63,2.425,3.066,2.454
	c-1.123,0.948-2.539,1.513-4.077,1.513c-0.265,0-0.526-0.017-0.783-0.049c1.453,1.003,3.178,1.588,5.032,1.588
	c6.038,0,9.34-5.385,9.34-10.054c0-0.153-0.003-0.306-0.01-0.457C15.003,3.989,15.56,3.367,16,2.658"/>
</svg>
